<?xml version="1.0" encoding="utf-8"?>
<!-- Generator: Adobe Illustrator 22.1.0, SVG Export Plug-In . SVG Version: 6.00 Build 0)  -->
<svg version="1.1" id="Layer_1" xmlns="http://www.w3.org/2000/svg" xmlns:xlink="http://www.w3.org/1999/xlink" x="0px" y="0px"
	 viewBox="0 0 360 360" style="enable-background:new 0 0 360 360;" xml:space="preserve">
<style type="text/css">
	.st0{fill:#FFFFFF;}
	.st1{fill:url(#SVGID_1_);}
	.st2{fill:url(#SVGID_2_);}
	.st3{fill:#0A3EFB;}
	.st4{fill:#06B4F1;}
	.st5{fill:url(#SVGID_3_);}
	.st6{fill:url(#SVGID_4_);}
</style>
<g>
	<path class="st0" d="M199.9,256.2h-39.9c-2.3,0-3.5,2.4-1.9,3.7c5.2,4.3,13,7.1,21.8,7.1c8.8,0,16.6-2.8,21.8-7.1
		C203.4,258.6,202.2,256.2,199.9,256.2z"/>
	<path class="st0" d="M206.3,231h-52.6c-2.2,0-4,1.8-4,4s1.8,4,4,4h52.6c2.2,0,4-1.8,4-4S208.5,231,206.3,231z"/>
	<path class="st0" d="M203.8,243.3h-47.5c-2.2,0-4,1.8-4,4s1.8,4,4,4h47.5c2.2,0,4-1.8,4-4S206,243.3,203.8,243.3z"/>
	<path class="st0" d="M180,94C180,94,180,94,180,94c-34.3,0.1-62.1,28.1-62.1,62.3c0,10.1,2.4,20,7,28.5
		c8.4,15.5,13.8,27.3,18.3,39.4c0.6,1.6,2.1,2.6,3.8,2.6h25.8c0,0,0,0,0,0s0,0,0,0h40.3c1.7,0,3.2-1,3.8-2.6
		c4.5-12.2,10-24,18.3-39.4c4.6-8.5,7-18.3,7-28.5C242.1,122.1,214.3,94.1,180,94z M228.1,181c-8,14.7-13.4,26.2-17.8,37.9h-19
		v-44.2c0-2.2-1.8-6.3-4-6.3s-4,0.8-4,3v47.5h-6.5v-47.7c0-2.2-1.8-2-4-2s-4,1.8-4,4v45.7h-19c-4.4-11.6-9.9-23.1-17.8-37.9
		c-4-7.3-6-15.8-6-24.7c0-29.9,24.3-54.2,54.1-54.3c29.8,0.1,54.1,24.5,54.1,54.3C234.1,165.1,232,173.6,228.1,181z"/>
</g>
<linearGradient id="SVGID_1_" gradientUnits="userSpaceOnUse" x1="137.5067" y1="163.7367" x2="222.5299" y2="163.7367">
	<stop  offset="0" style="stop-color:#090EFF"/>
	<stop  offset="1" style="stop-color:#06E6ED"/>
</linearGradient>
<path class="st1" d="M222.3,160.8c-0.5-3.4-1.8-6.6-4-9.3c-1.5-1.9-3.3-3.5-5.4-4.8c-2.4-1.4-4.9-2.4-7.7-2.7
	c-2.5-0.2-5-0.2-7.5,0.6c-2.1,0.7-4,1.7-5.9,2.8c-1.5,0.9-2.9,2-4.3,3.2l-6,6.1c-0.5,0.5-1,1.1-1.5,1.6v0c0,0,0,0,0,0.1v0
	c-0.7,0.8-1.3,1.5-2,2.3c-1.8,2-3.5,4-5.3,6c-1.3,1.5-2.7,2.9-4.1,4.2c-2.2,2-4.6,3.9-7.4,4.9c-1.8,0.6-3.7,0.8-5.6,0.5
	c-2.6-0.4-4.9-1.5-6.8-3.3c-1.3-1.2-2.3-2.7-3-4.3c-0.8-1.9-1.2-3.9-1-6c0.3-3.4,1.7-6.4,4.3-8.7c1.3-1.1,2.8-1.9,4.4-2.5
	c2.1-0.7,4.2-0.8,6.3-0.4c1.7,0.4,3.2,1.2,4.7,2.1c1.2,0.8,2.3,1.7,3.4,2.5c0.6,0.5,1.2,1.1,1.7,1.6l1.6,1.7c1.4,1.5,3.8,1.5,5.2,0
	c1.3-1.4,1.3-3.5,0-4.9c-0.4-0.5-0.9-0.9-1.2-1.3c-1.6-1.7-3.3-3.2-5.1-4.5c-1.7-1.3-3.5-2.4-5.5-3.3c-1.5-0.6-3.1-1-4.8-1.3
	c-1.3-0.2-2.6-0.2-3.9-0.1c-3.6,0.4-6.9,1.5-9.9,3.7c-1.5,1.1-2.8,2.4-4,3.8c-1.4,1.7-2.4,3.7-3.2,5.8c-1.2,3.2-1.4,6.4-0.9,9.7
	c0.5,3.4,1.8,6.6,4,9.3c1.5,1.9,3.3,3.5,5.4,4.8c2.4,1.4,4.9,2.4,7.7,2.7c2.5,0.2,5,0.2,7.5-0.6c2.1-0.7,4-1.7,5.9-2.8
	c1.5-0.9,2.9-2,4.3-3.2l6-6.1c0.5-0.5,1-1.1,1.5-1.6v0c0,0,0,0,0-0.1v0c0.7-0.8,1.3-1.5,2-2.3c1.8-2,3.5-4,5.3-6
	c1.3-1.5,2.7-2.9,4.1-4.2c2.2-2,4.6-3.9,7.4-4.9c1.8-0.6,3.7-0.8,5.6-0.5c2.6,0.4,4.9,1.5,6.8,3.3c1.3,1.2,2.3,2.7,3,4.3
	c0.8,1.9,1.2,3.9,1,6c-0.3,3.4-1.7,6.4-4.3,8.7c-1.3,1.1-2.8,1.9-4.4,2.5c-2.1,0.7-4.2,0.8-6.3,0.4c-1.7-0.4-3.2-1.2-4.7-2.1
	c-1.2-0.8-2.3-1.7-3.4-2.5c-0.6-0.5-1.2-1.1-1.7-1.6l-1.6-1.7c-1.4-1.5-3.8-1.5-5.2,0c-1.3,1.4-1.3,3.5,0,4.9
	c0.4,0.5,0.9,0.9,1.2,1.3c1.6,1.7,3.3,3.2,5.1,4.5c1.7,1.3,3.5,2.4,5.5,3.3c1.5,0.6,3.1,1,4.8,1.3c1.3,0.2,2.6,0.2,3.9,0.1
	c3.6-0.4,6.9-1.5,9.9-3.7c1.5-1.1,2.8-2.4,4-3.8c1.4-1.7,2.4-3.7,3.2-5.8C222.6,167.3,222.8,164.1,222.3,160.8z"/>
<linearGradient id="SVGID_2_" gradientUnits="userSpaceOnUse" x1="180.0183" y1="183.8831" x2="180.0183" y2="143.5903">
	<stop  offset="0" style="stop-color:#FFFFFF"/>
	<stop  offset="1" style="stop-color:#FFFFFF;stop-opacity:0"/>
</linearGradient>
<path class="st2" d="M222.3,160.8c-0.5-3.4-1.8-6.6-4-9.3c-1.5-1.9-3.3-3.5-5.4-4.8c-2.4-1.4-4.9-2.4-7.7-2.7
	c-2.5-0.2-5-0.2-7.5,0.6c-2.1,0.7-4,1.7-5.9,2.8c-1.5,0.9-2.9,2-4.3,3.2l-6,6.1c-0.5,0.5-1,1.1-1.5,1.6v0c0,0,0,0,0,0.1v0
	c-0.7,0.8-1.3,1.5-2,2.3c-1.8,2-3.5,4-5.3,6c-1.3,1.5-2.7,2.9-4.1,4.2c-2.2,2-4.6,3.9-7.4,4.9c-1.8,0.6-3.7,0.8-5.6,0.5
	c-2.6-0.4-4.9-1.5-6.8-3.3c-1.3-1.2-2.3-2.7-3-4.3c-0.8-1.9-1.2-3.9-1-6c0.3-3.4,1.7-6.4,4.3-8.7c1.3-1.1,2.8-1.9,4.4-2.5
	c2.1-0.7,4.2-0.8,6.3-0.4c1.7,0.4,3.2,1.2,4.7,2.1c1.2,0.8,2.3,1.7,3.4,2.5c0.6,0.5,1.2,1.1,1.7,1.6l1.6,1.7c1.4,1.5,3.8,1.5,5.2,0
	c1.3-1.4,1.3-3.5,0-4.9c-0.4-0.5-0.9-0.9-1.2-1.3c-1.6-1.7-3.3-3.2-5.1-4.5c-1.7-1.3-3.5-2.4-5.5-3.3c-1.5-0.6-3.1-1-4.8-1.3
	c-1.3-0.2-2.6-0.2-3.9-0.1c-3.6,0.4-6.9,1.5-9.9,3.7c-1.5,1.1-2.8,2.4-4,3.8c-1.4,1.7-2.4,3.7-3.2,5.8c-1.2,3.2-1.4,6.4-0.9,9.7
	c0.5,3.4,1.8,6.6,4,9.3c1.5,1.9,3.3,3.5,5.4,4.8c2.4,1.4,4.9,2.4,7.7,2.7c2.5,0.2,5,0.2,7.5-0.6c2.1-0.7,4-1.7,5.9-2.8
	c1.5-0.9,2.9-2,4.3-3.2l6-6.1c0.5-0.5,1-1.1,1.5-1.6v0c0,0,0,0,0-0.1v0c0.7-0.8,1.3-1.5,2-2.3c1.8-2,3.5-4,5.3-6
	c1.3-1.5,2.7-2.9,4.1-4.2c2.2-2,4.6-3.9,7.4-4.9c1.8-0.6,3.7-0.8,5.6-0.5c2.6,0.4,4.9,1.5,6.8,3.3c1.3,1.2,2.3,2.7,3,4.3
	c0.8,1.9,1.2,3.9,1,6c-0.3,3.4-1.7,6.4-4.3,8.7c-1.3,1.1-2.8,1.9-4.4,2.5c-2.1,0.7-4.2,0.8-6.3,0.4c-1.7-0.4-3.2-1.2-4.7-2.1
	c-1.2-0.8-2.3-1.7-3.4-2.5c-0.6-0.5-1.2-1.1-1.7-1.6l-1.6-1.7c-1.4-1.5-3.8-1.5-5.2,0c-1.3,1.4-1.3,3.5,0,4.9
	c0.4,0.5,0.9,0.9,1.2,1.3c1.6,1.7,3.3,3.2,5.1,4.5c1.7,1.3,3.5,2.4,5.5,3.3c1.5,0.6,3.1,1,4.8,1.3c1.3,0.2,2.6,0.2,3.9,0.1
	c3.6-0.4,6.9-1.5,9.9-3.7c1.5-1.1,2.8-2.4,4-3.8c1.4-1.7,2.4-3.7,3.2-5.8C222.6,167.3,222.8,164.1,222.3,160.8z"/>
<path class="st3" d="M159.1,140.4c3.1-0.4,6.6-3,6.4-7.9c-0.1-3.3-3.2-6.7-7.3-6.8c-4-0.1-7.7,3.7-7.5,7.3
	C150.5,136.7,153.7,141,159.1,140.4z"/>
<path class="st4" d="M203.3,140.4c4,0,7.5-3.5,7.3-7.4c0.2-3.9-3.2-7.5-7.4-7.4c-3.8,0-7.5,3.2-7.3,7.7
	C196.1,137.2,199.4,140.4,203.3,140.4z"/>
</svg>
